<?xml version="1.0" encoding="UTF-8"?>
<!DOCTYPE svg PUBLIC "-//W3C//DTD SVG 1.1//EN" "http://www.w3.org/Graphics/SVG/1.1/DTD/svg11.dtd">
<!-- Creator: CorelDRAW 2017 -->
<svg xmlns="http://www.w3.org/2000/svg" xml:space="preserve" width="210mm" height="297mm" version="1.1" style="shape-rendering:geometricPrecision; text-rendering:geometricPrecision; image-rendering:optimizeQuality; fill-rule:evenodd; clip-rule:evenodd"
viewBox="0 0 21000 29700"
 xmlns:xlink="http://www.w3.org/1999/xlink">
 <defs>
  <style type="text/css">
   <![CDATA[
    .fil0 {fill:#373435}
    .fil1 {fill:#E9DFCE}
   ]]>
  </style>
 </defs>
 <g id="Capa_x0020_1">
  <metadata id="CorelCorpID_0Corel-Layer"/>
  <rect class="fil0" x="-43713" y="4118" width="4606" height="4453" rx="419" ry="419"/>
  <path class="fil1" d="M-43034 6341c81,58 732,144 1107,515 125,123 229,295 315,499 41,98 74,195 107,300 16,52 31,103 47,156 12,42 28,118 46,157 24,-31 74,-245 93,-304 99,-309 203,-579 420,-801 290,-295 647,-369 1114,-517 -147,-77 -751,-149 -1108,-516 -83,-85 -114,-121 -181,-226 -52,-82 -95,-174 -136,-271 -60,-140 -135,-378 -177,-536 -11,-41 -7,-50 -27,-77 -125,450 -241,838 -510,1109 -241,243 -682,410 -1110,511z"/>
 </g>
</svg>
